# xmcd
#
# Track frame offsets:
#	150
#	11566
#	27354
#	45808
#	61428
#	72236
#	84763
#	96731
#	109540
#	124215
#	141221
#	153428
#	172078
#	186520
#	201159
#	214653
#
# Disc length: 3042 seconds
#
# Revision: 1
# Processed by: cddbd v1.5PL3 Copyright (c) Steve Scherf et al.
# Submitted via: audiograbber 1.83.01
#
DISCID=e10be010
DTITLE=JONNY HILL - COWBOY DER LANDSTRASSE
DYEAR=1900
DGENRE=
TTITLE0=Ich fahr'meine Tour
TTITLE1=Ich möcht so gern,...
TTITLE2=Wieder mal auf Tournee
TTITLE3=Lucille
TTITLE4=Adios Amigos
TTITLE5=Fruende
TTITLE6=Mehr hinterm Lenkrad,...
TTITLE7=Mein bester Freund
TTITLE8=Nur noch einmal nach...
TTITLE9=Rosen für Mama
TTITLE10=The Yellow Rose Of ...
TTITLE11=Sylvias Mutter
TTITLE12=Wenn der Briefträger...
TTITLE13=Wie heißt deine Mama
TTITLE14=Ich wollte Dir....
TTITLE15=Jetzt sage ich euch....
EXTD=
EXTT0=
EXTT1=
EXTT2=
EXTT3=
EXTT4=
EXTT5=
EXTT6=
EXTT7=
EXTT8=
EXTT9=
EXTT10=
EXTT11=
EXTT12=
EXTT13=
EXTT14=
EXTT15=
PLAYORDER=
